<svg width="512" height="512" viewBox="0 0 512 512" fill="none" xmlns="http://www.w3.org/2000/svg">
  <rect width="512" height="512" rx="120" fill="#2563eb"/>
  <path d="M128 160C128 142.327 142.327 128 160 128H352C369.673 128 384 142.327 384 160V352C384 369.673 369.673 384 352 384H160C142.327 384 128 369.673 128 352V160Z" fill="white" fill-opacity="0.2"/>
  <path d="M160 192H352V352H160V192Z" fill="white"/>
  <rect x="200" y="128" width="24" height="64" rx="12" fill="white"/>
  <rect x="288" y="128" width="24" height="64" rx="12" fill="white"/>
  <path d="M256 240L256 304L216 304" stroke="#2563eb" stroke-width="24" stroke-linecap="round" stroke-linejoin="round"/>
  <circle cx="312" cy="248" r="16" fill="#2563eb"/>
</svg>
